<svg width="24" height="25" viewBox="0 0 24 25" fill="none" xmlns="http://www.w3.org/2000/svg">
<path d="M13.0598 8.61023L14.4748 10.0252C15.1249 10.6753 15.6405 11.447 15.9924 12.2963C16.3442 13.1456 16.5253 14.0559 16.5253 14.9752C16.5253 15.8945 16.3442 16.8049 15.9924 17.6542C15.6405 18.5035 15.1249 19.2752 14.4748 19.9252L14.1208 20.2782C12.8079 21.5911 11.0274 22.3286 9.17077 22.3286C7.31416 22.3286 5.53359 21.5911 4.22077 20.2782C2.90795 18.9654 2.17041 17.1848 2.17041 15.3282C2.17041 13.4716 2.90795 11.6911 4.22077 10.3782L5.63577 11.7932C5.16814 12.2568 4.79667 12.8081 4.5427 13.4156C4.28872 14.0231 4.15724 14.6748 4.1558 15.3333C4.15435 15.9917 4.28298 16.644 4.53429 17.2526C4.78561 17.8612 5.15465 18.4142 5.62025 18.8798C6.08585 19.3453 6.63882 19.7144 7.24743 19.9657C7.85603 20.217 8.50828 20.3456 9.16673 20.3442C9.82518 20.3428 10.4769 20.2113 11.0844 19.9573C11.6919 19.7033 12.2432 19.3319 12.7068 18.8642L13.0608 18.5102C13.9981 17.5726 14.5247 16.3011 14.5247 14.9752C14.5247 13.6494 13.9981 12.3779 13.0608 11.4402L11.6458 10.0252L13.0608 8.61123L13.0598 8.61023ZM19.7778 14.6212L18.3638 13.2072C18.8314 12.7437 19.2029 12.1923 19.4568 11.5848C19.7108 10.9773 19.8423 10.3256 19.8437 9.6672C19.8452 9.00875 19.7166 8.3565 19.4652 7.74789C19.2139 7.13928 18.8449 6.58631 18.3793 6.12071C17.9137 5.65512 17.3607 5.28607 16.7521 5.03476C16.1435 4.78345 15.4913 4.65482 14.8328 4.65626C14.1744 4.6577 13.5227 4.78919 12.9152 5.04316C12.3077 5.29714 11.7563 5.6686 11.2928 6.13623L10.9388 6.49023C10.0014 7.42787 9.47484 8.69941 9.47484 10.0252C9.47484 11.3511 10.0014 12.6226 10.9388 13.5602L12.3538 14.9752L10.9388 16.3892L9.52477 14.9752C8.87468 14.3252 8.359 13.5535 8.00717 12.7042C7.65535 11.8549 7.47426 10.9445 7.47426 10.0252C7.47426 9.10592 7.65535 8.19561 8.00717 7.34628C8.359 6.49696 8.87468 5.72525 9.52477 5.07523L9.87877 4.72223C11.1916 3.40941 12.9722 2.67188 14.8288 2.67188C16.6854 2.67188 18.4659 3.40941 19.7788 4.72223C21.0916 6.03505 21.8291 7.81562 21.8291 9.67223C21.8291 11.5288 21.0916 13.3094 19.7788 14.6222L19.7778 14.6212Z" fill="#09121F"/>
</svg>
