<svg width="24" height="25" viewBox="0 0 24 25" fill="none" xmlns="http://www.w3.org/2000/svg">
<g clip-path="url(#clip0_10002_167)">
<path d="M15.456 10.1778L15.314 10.0358C14.6448 9.39057 13.8223 8.92631 12.924 8.68685C10.017 7.90885 7.225 9.55585 6.432 12.5168C6.389 12.6768 6.366 12.8568 6.328 13.3078C6.174 15.1778 5.734 16.5729 4.528 17.9879C6.788 18.8759 9.466 19.5019 11.502 19.5019C12.7123 19.5003 13.8883 19.1 14.8482 18.3629C15.8081 17.6257 16.4983 16.5928 16.812 15.4238C17.0583 14.5068 17.0629 13.5415 16.8253 12.6222C16.5876 11.7028 16.1159 10.8607 15.456 10.1778ZM13.29 6.71585L18.229 2.87485C18.4213 2.72547 18.6615 2.65138 18.9045 2.66648C19.1475 2.68157 19.3767 2.78482 19.549 2.95685L22.544 5.95085C22.7163 6.12322 22.8197 6.35259 22.8348 6.59584C22.8499 6.8391 22.7757 7.07949 22.626 7.27185L18.786 12.2098C19.0568 13.3143 19.073 14.4657 18.8335 15.5773C18.5941 16.689 18.1052 17.7316 17.4037 18.6266C16.7022 19.5215 15.8066 20.2454 14.7843 20.7435C13.7621 21.2416 12.6401 21.5009 11.503 21.5019C8 21.5019 3.5 19.9998 1 18.4998C4.98 15.4998 4.047 13.6898 4.5 11.9998C5.558 8.04985 9.342 5.74285 13.289 6.71585H13.29ZM16.703 8.59485C16.768 8.65785 16.833 8.72285 16.896 8.78885L18.031 9.92285L20.506 6.74085L18.76 4.99485L15.578 7.46985L16.703 8.59485Z" fill="black"/>
</g>
<defs>
<clipPath id="clip0_10002_167">
<rect width="24" height="24" fill="white" transform="translate(0 0.5)"/>
</clipPath>
</defs>
</svg>
