<svg width="24" height="25" viewBox="0 0 24 25" fill="none" xmlns="http://www.w3.org/2000/svg">
<g clip-path="url(#clip0_10002_160)">
<path d="M16.757 3.5001L14.757 5.5001H5V19.5001H19V9.7431L21 7.7431V20.5001C21 20.7653 20.8946 21.0197 20.7071 21.2072C20.5196 21.3947 20.2652 21.5001 20 21.5001H4C3.73478 21.5001 3.48043 21.3947 3.29289 21.2072C3.10536 21.0197 3 20.7653 3 20.5001V4.5001C3 4.23488 3.10536 3.98053 3.29289 3.79299C3.48043 3.60545 3.73478 3.5001 4 3.5001H16.757ZM20.485 2.6001L21.9 4.0161L12.708 13.2081L11.296 13.2111L11.294 11.7941L20.485 2.6001Z" fill="black"/>
</g>
<defs>
<clipPath id="clip0_10002_160">
<rect width="24" height="24" fill="white" transform="translate(0 0.5)"/>
</clipPath>
</defs>
</svg>
