<svg width="24" height="25" viewBox="0 0 24 25" fill="none" xmlns="http://www.w3.org/2000/svg">
<path d="M8 17.5002H16M11.0177 3.26424L4.23539 8.53937C3.78202 8.89199 3.55534 9.0683 3.39203 9.2891C3.24737 9.48469 3.1396 9.70503 3.07403 9.9393C3 10.2038 3 10.4909 3 11.0653V18.3002C3 19.4203 3 19.9804 3.21799 20.4082C3.40973 20.7845 3.71569 21.0905 4.09202 21.2822C4.51984 21.5002 5.07989 21.5002 6.2 21.5002H17.8C18.9201 21.5002 19.4802 21.5002 19.908 21.2822C20.2843 21.0905 20.5903 20.7845 20.782 20.4082C21 19.9804 21 19.4203 21 18.3002V11.0653C21 10.4909 21 10.2038 20.926 9.9393C20.8604 9.70503 20.7526 9.48469 20.608 9.2891C20.4447 9.0683 20.218 8.89199 19.7646 8.53937L12.9823 3.26424C12.631 2.99099 12.4553 2.85436 12.2613 2.80184C12.0902 2.7555 11.9098 2.7555 11.7387 2.80184C11.5447 2.85436 11.369 2.99099 11.0177 3.26424Z" stroke="white" stroke-width="2" stroke-linecap="round" stroke-linejoin="round"/>
</svg>
