<svg width="25" height="25" viewBox="0 0 25 25" fill="none" xmlns="http://www.w3.org/2000/svg">
<path d="M13 3.5H8.3C6.61984 3.5 5.77976 3.5 5.13803 3.82698C4.57354 4.1146 4.1146 4.57354 3.82698 5.13803C3.5 5.77976 3.5 6.61984 3.5 8.3V16.7C3.5 18.3802 3.5 19.2202 3.82698 19.862C4.1146 20.4265 4.57354 20.8854 5.13803 21.173C5.77976 21.5 6.61984 21.5 8.3 21.5H17.5C18.43 21.5 18.895 21.5 19.2765 21.3978C20.3117 21.1204 21.1204 20.3117 21.3978 19.2765C21.5 18.895 21.5 18.43 21.5 17.5M19.5 8.5V2.5M16.5 5.5H22.5M11 9C11 10.1046 10.1046 11 9 11C7.89543 11 7 10.1046 7 9C7 7.89543 7.89543 7 9 7C10.1046 7 11 7.89543 11 9ZM15.49 12.4181L7.03115 20.108C6.55536 20.5406 6.31747 20.7568 6.29643 20.9442C6.27819 21.1066 6.34045 21.2676 6.46319 21.3755C6.60478 21.5 6.92628 21.5 7.56929 21.5H16.956C18.3951 21.5 19.1147 21.5 19.6799 21.2582C20.3894 20.9547 20.9547 20.3894 21.2582 19.6799C21.5 19.1147 21.5 18.3951 21.5 16.956C21.5 16.4717 21.5 16.2296 21.4471 16.0042C21.3805 15.7208 21.253 15.4554 21.0733 15.2264C20.9303 15.0442 20.7412 14.8929 20.3631 14.5905L17.5658 12.3527C17.1874 12.0499 16.9982 11.8985 16.7898 11.8451C16.6061 11.798 16.4129 11.8041 16.2325 11.8627C16.0279 11.9291 15.8486 12.0921 15.49 12.4181Z" stroke="white" stroke-width="1.5" stroke-linecap="round" stroke-linejoin="round"/>
</svg>
