<svg width="25" height="25" viewBox="0 0 25 25" fill="none" xmlns="http://www.w3.org/2000/svg">
<path d="M12.5 12.5L21.5 12.5M12.5 3.5L12.5 21.5M8.3 3.5H16.7C18.3802 3.5 19.2202 3.5 19.862 3.82698C20.4265 4.1146 20.8854 4.57354 21.173 5.13803C21.5 5.77976 21.5 6.61984 21.5 8.3V16.7C21.5 18.3802 21.5 19.2202 21.173 19.862C20.8854 20.4265 20.4265 20.8854 19.862 21.173C19.2202 21.5 18.3802 21.5 16.7 21.5H8.3C6.61984 21.5 5.77976 21.5 5.13803 21.173C4.57354 20.8854 4.1146 20.4265 3.82698 19.862C3.5 19.2202 3.5 18.3802 3.5 16.7V8.3C3.5 6.61984 3.5 5.77976 3.82698 5.13803C4.1146 4.57354 4.57354 4.1146 5.13803 3.82698C5.77976 3.5 6.61984 3.5 8.3 3.5Z" stroke="white" stroke-width="1.5" stroke-linecap="round" stroke-linejoin="round"/>
</svg>
