<svg width="25" height="25" viewBox="0 0 25 25" fill="none" xmlns="http://www.w3.org/2000/svg">
<g clip-path="url(#clip0_9798_31167)">
<path d="M12.5 2.5C14.0913 2.5 15.6174 3.13214 16.7426 4.25736C17.8679 5.38258 18.5 6.9087 18.5 8.5V9.5H22.5V11.5H21.333L20.576 20.583C20.5552 20.8329 20.4413 21.0658 20.2568 21.2357C20.0723 21.4055 19.8308 21.4999 19.58 21.5H5.42C5.16925 21.4999 4.9277 21.4055 4.74322 21.2357C4.55875 21.0658 4.44481 20.8329 4.424 20.583L3.666 11.5H2.5V9.5H6.5V8.5C6.5 6.9087 7.13214 5.38258 8.25736 4.25736C9.38258 3.13214 10.9087 2.5 12.5 2.5ZM19.326 11.5H5.673L6.34 19.5H18.659L19.326 11.5ZM13.5 13.5V17.5H11.5V13.5H13.5ZM9.5 13.5V17.5H7.5V13.5H9.5ZM17.5 13.5V17.5H15.5V13.5H17.5ZM12.5 4.5C11.4738 4.5 10.4868 4.89444 9.74319 5.60172C8.9996 6.30901 8.55631 7.27504 8.505 8.3L8.5 8.5V9.5H16.5V8.5C16.5 7.47376 16.1056 6.48677 15.3983 5.74319C14.691 4.9996 13.725 4.55631 12.7 4.505L12.5 4.5Z" fill="#09121F"/>
</g>
<defs>
<clipPath id="clip0_9798_31167">
<rect width="24" height="24" fill="white" transform="translate(0.5 0.5)"/>
</clipPath>
</defs>
</svg>
